{"title":"Shetland S02E02 720P x264 Raven Black pt2 RB58.mp4","uid":9787381,"size":1063626232,"categoryP":"video","categoryS":"hd___tv_shows","magnet":"?xt=urn:btih:55d1a9cb35fbe9ff4f30e2ce9c78e461f8404376&amp;dn=Shetland+S02E02+720P+x264+Raven+Black+pt2+RB58.mp4&amp;tr=udp%3A%2F%2Ftracker.openbittorrent.com%3A80&amp;tr=udp%3A%2F%2Fopen.demonii.com%3A1337&amp;tr=udp%3A%2F%2Ftracker.coppersurfer.tk%3A6969&amp;tr=udp%3A%2F%2Fexodus.desync.com%3A6969","seeders":2,"leechers":1,"uploader":"RedBaron58","files":1,"time":1395190937,"description":"Shetland Series 2 Episode 2  -  Raven Black pt 2  720P x264 \n &lt;a href=&quot;\nhttp://www.imdb.com/title/tt2396135/&quot; rel=&quot;nofollow&quot; target=&quot;_NEW&quot;&gt;\nhttp://www.imdb.com/title/tt2396135/&lt;/a&gt;\n\nPlease be patient My upload speed is limited, but I am online most the time and during the night.\nThank you for your kind comments and thumbs ups on my other torrents, your feedback is welcome.\n\n\nThe Scotland-based crime drama cosisting of three two-part stories starring Douglas Henshall.\n\n\nAbout the Episode:\nThe discovery of seven-year-old Catriona's body after almost two decades prompts Jimmy Perez to \ntake Magnus in for further questioning. \nBut at the station, the recluse's distress ends in him in attacking the inspector, and he is \nsent for a psychological evaluation. Ploughing on, Perez re-examines the evidence, but it is only \nwhen Catriona's brother reveals she had a secret hiding place at their old home - the same house \nwhere Catherine also lived - that he finally sees a glimmer of hope.\n\n\nI hope you enjoy.\n\n\nTechnical:\n\nGeneral\nComplete name                            : E:Shetland S02E02 720P x264 Raven Black pt2 RB58.mp4\nFormat                                   : MPEG-4\nFormat profile                           : Base Media\nCodec ID                                 : isom\nFile size                                : 1 014 MiB\nDuration                                 : 59mn 4s\nOverall bit rate mode                    : Variable\nOverall bit rate                         : 2 401 Kbps\nWriting application                      : Lavf54.63.104\n\nVideo\nID                                       : 1\nFormat                                   : AVC\nFormat/Info                              : Advanced Video Codec\nFormat profile                           : &lt;a class=&quot;__cf_email__&quot; href=&quot;/cdn-cgi/l/email-protection&quot; data-cfemail=&quot;4d05242a250d0179637c&quot;&gt;[email&amp;#160;protected]&lt;/a&gt;&lt;script cf-hash='f9e31' type=&quot;text/javascript&quot;&gt;\n/* &lt;![CDATA[ */!function(){try{var t=&quot;currentScript&quot;in document?document.currentScript:function(){for(var t=document.getElementsByTagName(&quot;script&quot;),e=t.length;e--;)if(t[e].getAttribute(&quot;cf-hash&quot;))return t[e]}();if(t&amp;&amp;t.previousSibling){var e,r,n,i,c=t.previousSibling,a=c.getAttribute(&quot;data-cfemail&quot;);if(a){for(e=&quot;&quot;,r=parseInt(a.substr(0,2),16),n=2;a.length-n;n+=2)i=parseInt(a.substr(n,2),16)^r,e+=String.fromCharCode(i);e=document.createTextNode(e),c.parentNode.replaceChild(e,c)}}}catch(u){}}();/* ]]&gt; */&lt;/script&gt;\nFormat settings, CABAC                   : Yes\nFormat settings, ReFrames                : 2 frames\nCodec ID                                 : avc1\nCodec ID/Info                            : Advanced Video Coding\nDuration                                 : 59mn 4s\nBit rate mode                            : Variable\nBit rate                                 : 2 302 Kbps\nMaximum bit rate                         : 3 500 Kbps\nWidth                                    : 1 280 pixels\nHeight                                   : 720 pixels\nDisplay aspect ratio                     : 16:9\nFrame rate mode                          : Constant\nFrame rate                               : 25.000 fps\nColor space                              : YUV\nChroma subsampling                       : 4:2:0\nBit depth                                : 8 bits\nScan type                                : Progressive\nBits/(Pixel*Frame)                       : 0.100\nStream size                              : 973 MiB (96%)\n\nAudio\nID                                       : 2\nFormat                                   : AAC\nFormat/Info                              : Advanced Audio Codec\nFormat profile                           : LC\nCodec ID                                 : 40\nDuration                                 : 59mn 4s\nBit rate mode                            : Constant\nBit rate                                 : 93.5 Kbps\nChannel(s)                               : 2 channels\nChannel positions                        : Front: L R\nSampling rate                            : 48.0 KHz\nCompression mode                         : Lossy\nStream size                              : 39.5 MiB (4%)","torrent":{"xt":"urn:btih:55d1a9cb35fbe9ff4f30e2ce9c78e461f8404376","amp;dn":"Shetland+S02E02+720P+x264+Raven+Black+pt2+RB58.mp4","amp;tr":["udp%3A%2F%2Ftracker.openbittorrent.com%3A80","udp%3A%2F%2Fopen.demonii.com%3A1337","udp%3A%2F%2Ftracker.coppersurfer.tk%3A6969","udp%3A%2F%2Fexodus.desync.com%3A6969"],"infoHash":"55d1a9cb35fbe9ff4f30e2ce9c78e461f8404376","infoHashBuffer":{"type":"Buffer","data":[85,209,169,203,53,251,233,255,79,48,226,206,156,120,228,97,248,64,67,118]},"announce":[],"urlList":[]}}